<svg width="500" height="500" viewBox="0 0 500 500" fill="none" xmlns="http://www.w3.org/2000/svg">
<path d="M249.969 55.4036C250.038 55.4646 250.107 55.5257 250.176 55.5869C250.214 55.6209 250.253 55.655 250.293 55.69C250.468 55.8493 250.632 56.0191 250.797 56.1906C250.834 56.2287 250.87 56.2668 250.908 56.306C251.031 56.4332 251.153 56.5605 251.276 56.6879C251.364 56.7802 251.453 56.8726 251.542 56.9649C251.787 57.2182 252.03 57.4718 252.274 57.7253C252.537 57.9989 252.801 58.2723 253.064 58.5457C253.55 59.0503 254.036 59.555 254.522 60.0598C254.97 60.5262 255.419 60.9925 255.868 61.4588C255.898 61.4897 255.928 61.5207 255.958 61.5526C256.079 61.6782 256.2 61.8038 256.321 61.9294C257.455 63.1076 258.589 64.286 259.723 65.4645C260.73 66.511 261.738 67.5574 262.745 68.6037C263.877 69.7795 265.009 70.9555 266.141 72.1317C266.262 72.2571 266.382 72.3826 266.503 72.508C266.533 72.5389 266.563 72.5698 266.593 72.6016C267.042 73.0675 267.49 73.5334 267.939 73.9993C268.449 74.5291 268.959 75.0591 269.469 75.5892C269.729 75.8597 269.989 76.1301 270.25 76.4003C270.488 76.6478 270.726 76.8954 270.964 77.1432C271.05 77.2327 271.137 77.3221 271.223 77.4115C271.34 77.5333 271.457 77.6553 271.575 77.7773C271.608 77.8117 271.641 77.8462 271.675 77.8817C271.846 78.0599 272.009 78.2423 272.167 78.4331C272.449 78.7713 272.754 79.085 273.059 79.4008C273.125 79.4698 273.192 79.5387 273.258 79.6077C273.44 79.7969 273.622 79.9858 273.804 80.1748C274.003 80.3805 274.201 80.5864 274.399 80.7923C274.746 81.153 275.093 81.5135 275.441 81.874C275.957 82.4101 276.473 82.9464 276.99 83.4827C277.858 84.385 278.727 85.2871 279.596 86.1892C280.782 87.421 281.969 88.6531 283.155 89.8852C283.707 90.4591 284.26 91.0331 284.813 91.6071C284.868 91.6645 284.923 91.722 284.98 91.7812C286.297 93.1488 287.614 94.5162 288.931 95.8837C288.988 95.9435 289.046 96.0034 289.105 96.065C289.982 96.9752 290.858 97.8853 291.735 98.7955C292.669 99.7661 293.604 100.737 294.539 101.707C294.596 101.767 294.654 101.827 294.713 101.888C296.028 103.254 297.342 104.619 298.656 105.984C298.712 106.041 298.767 106.099 298.824 106.158C299.375 106.73 299.927 107.303 300.478 107.876C301.663 109.107 302.848 110.337 304.033 111.568C304.897 112.465 305.761 113.362 306.624 114.259C307.137 114.792 307.651 115.325 308.164 115.858C308.507 116.214 308.85 116.57 309.193 116.926C309.388 117.129 309.583 117.332 309.779 117.534C309.957 117.719 310.135 117.904 310.312 118.089C310.376 118.155 310.44 118.221 310.504 118.287C310.812 118.607 311.112 118.929 311.396 119.273C311.609 119.523 311.839 119.756 312.066 119.991C312.122 120.048 312.177 120.106 312.234 120.165C312.387 120.324 312.54 120.483 312.693 120.641C312.86 120.814 313.027 120.987 313.194 121.16C313.486 121.463 313.778 121.766 314.07 122.069C314.504 122.519 314.939 122.97 315.373 123.42C316.059 124.132 316.745 124.843 317.431 125.554C318.519 126.683 319.607 127.812 320.695 128.941C320.926 129.181 321.158 129.421 321.389 129.661C321.67 129.953 321.951 130.245 322.232 130.536C323.292 131.636 324.351 132.735 325.41 133.834C325.459 133.885 325.507 133.935 325.557 133.987C327.128 135.617 328.7 137.248 330.273 138.878C331.889 140.553 333.504 142.23 335.119 143.906C335.347 144.143 335.575 144.379 335.803 144.616C335.847 144.662 335.892 144.709 335.938 144.757C336.661 145.508 337.385 146.257 338.109 147.007C338.835 147.76 339.561 148.513 340.286 149.267C340.718 149.715 341.149 150.163 341.582 150.61C341.87 150.908 342.158 151.207 342.445 151.506C342.609 151.677 342.774 151.848 342.938 152.018C343.116 152.2 343.292 152.384 343.467 152.568C343.52 152.621 343.572 152.674 343.625 152.729C343.695 152.802 343.695 152.802 343.766 152.877C343.806 152.919 343.846 152.961 343.888 153.004C343.965 153.125 343.965 153.125 343.956 153.243C343.882 153.44 343.769 153.549 343.625 153.698C343.596 153.729 343.567 153.759 343.537 153.791C343.438 153.894 343.338 153.997 343.238 154.1C343.166 154.175 343.094 154.25 343.022 154.325C342.823 154.533 342.623 154.74 342.423 154.947C342.205 155.173 341.988 155.399 341.771 155.625C341.388 156.024 341.004 156.422 340.621 156.819C340.047 157.415 339.473 158.011 338.9 158.607C337.923 159.622 336.945 160.638 335.968 161.653C334.976 162.682 333.985 163.711 332.994 164.741C332.963 164.773 332.932 164.806 332.9 164.839C332.613 165.136 332.327 165.434 332.041 165.731C331.324 166.476 330.606 167.222 329.889 167.967C329.856 168.001 329.823 168.036 329.789 168.071C328.167 169.756 326.544 171.441 324.922 173.126C324.35 173.719 323.779 174.313 323.207 174.906C323.172 174.943 323.136 174.98 323.1 175.018C321.455 176.726 319.811 178.434 318.167 180.142C318.059 180.254 317.952 180.365 317.844 180.477C317.196 181.151 316.548 181.824 315.899 182.497C314.288 184.172 312.676 185.846 311.064 187.52C311.027 187.558 310.991 187.596 310.953 187.636C308.576 190.105 306.199 192.574 303.822 195.043C303.784 195.082 303.746 195.122 303.707 195.162C302.551 196.363 301.395 197.563 300.24 198.763C298.961 200.091 297.682 201.419 296.404 202.747C296.346 202.807 296.346 202.807 296.287 202.868C292.635 206.661 288.984 210.453 285.333 214.246C285.178 214.407 285.024 214.567 284.869 214.728C283.446 216.206 282.023 217.684 280.6 219.162C280.543 219.221 280.543 219.221 280.486 219.282C280.371 219.401 280.256 219.52 280.142 219.639C277.047 222.854 273.952 226.069 270.857 229.284C270.747 229.397 270.638 229.511 270.529 229.624C266.982 233.309 263.435 236.993 250.851 250.063C250.82 250.095 250.789 250.127 250.757 250.16C247.654 253.384 244.55 256.607 241.446 259.831C241.531 260.026 241.625 260.163 241.771 260.314C241.812 260.357 241.853 260.4 241.896 260.445C241.964 260.515 241.964 260.515 242.034 260.587C242.083 260.638 242.131 260.689 242.181 260.741C242.346 260.912 242.51 261.083 242.675 261.253C242.794 261.377 242.913 261.501 243.032 261.625C243.293 261.895 243.553 262.166 243.814 262.436C244.204 262.841 244.594 263.246 244.984 263.651C245.649 264.342 246.313 265.032 246.978 265.722C247.652 266.422 248.326 267.121 249 267.821C249.043 267.865 249.085 267.909 249.129 267.955C249.346 268.18 249.562 268.405 249.779 268.63C251.301 270.211 252.823 271.791 254.345 273.372C255.949 275.037 257.553 276.702 259.156 278.368C259.205 278.418 259.253 278.468 259.303 278.52C259.842 279.08 260.381 279.64 260.921 280.2C261.918 281.236 262.916 282.272 263.913 283.309C263.963 283.36 264.013 283.412 264.065 283.466C266.441 285.934 268.818 288.402 271.195 290.871C271.353 291.034 271.511 291.198 271.668 291.362C273.253 293.007 274.837 294.652 276.421 296.297C278.058 297.997 279.695 299.697 281.332 301.397C281.49 301.56 281.647 301.724 281.805 301.888C284.18 304.354 286.555 306.821 288.93 309.287C288.98 309.339 289.03 309.391 289.081 309.444C290.077 310.479 291.074 311.514 292.07 312.549C292.609 313.109 293.148 313.668 293.687 314.228C293.735 314.278 293.783 314.328 293.833 314.379C295.436 316.045 297.039 317.709 298.643 319.374C300.16 320.949 301.678 322.525 303.195 324.101C303.411 324.325 303.627 324.55 303.842 324.774C303.885 324.818 303.927 324.862 303.971 324.907C304.643 325.605 305.315 326.303 305.988 327.001C306.648 327.687 307.308 328.372 307.968 329.058C308.355 329.46 308.743 329.863 309.131 330.265C309.388 330.531 309.645 330.798 309.901 331.065C310.047 331.217 310.193 331.368 310.339 331.52C310.496 331.682 310.652 331.844 310.808 332.007C310.854 332.054 310.9 332.102 310.947 332.15C310.988 332.193 311.029 332.236 311.071 332.28C311.107 332.317 311.143 332.354 311.179 332.393C311.255 332.487 311.255 332.487 311.255 332.617C307.904 332.618 304.554 332.619 301.203 332.62C301.138 332.62 301.072 332.62 301.005 332.62C293.978 332.622 286.952 332.624 279.926 332.625C279.77 332.625 279.613 332.625 279.457 332.625C276.181 332.626 272.904 332.627 269.627 332.627C267.981 332.627 266.335 332.628 264.689 332.628C264.441 332.628 264.193 332.628 263.944 332.628C260.122 332.629 256.299 332.629 252.476 332.631C252.394 332.631 252.312 332.631 252.227 332.631C250.902 332.631 249.578 332.631 248.253 332.632C244.436 332.633 240.62 332.634 236.803 332.635C236.685 332.635 236.685 332.635 236.565 332.635C234.841 332.635 233.118 332.635 231.394 332.635C230.701 332.636 230.007 332.636 229.314 332.636C229.238 332.636 229.162 332.636 229.083 332.636C226.639 332.636 224.195 332.637 221.75 332.638C219.287 332.639 216.824 332.64 214.361 332.639C214.021 332.639 213.68 332.639 213.339 332.639C213.239 332.639 213.239 332.639 213.137 332.639C212.081 332.639 211.025 332.64 209.97 332.641C208.931 332.641 207.891 332.642 206.852 332.641C206.244 332.641 205.635 332.641 205.027 332.642C204.622 332.642 204.216 332.642 203.811 332.642C203.582 332.641 203.353 332.641 203.124 332.642C198.27 332.658 193.675 330.943 190.061 327.539C190.022 327.502 189.983 327.466 189.943 327.428C189.176 326.708 189.176 326.708 188.846 326.296C188.776 326.209 188.702 326.124 188.627 326.041C184.697 321.701 183.834 315.869 183.842 310.159C183.842 309.811 183.842 309.463 183.842 309.115C183.841 308.504 183.841 307.894 183.842 307.283C183.842 306.369 183.842 305.455 183.842 304.541C183.841 302.983 183.841 301.425 183.842 299.867C183.842 298.288 183.842 296.71 183.842 295.132C183.842 295.082 183.842 295.032 183.842 294.98C183.842 294.523 183.842 294.066 183.842 293.609C183.842 292.463 183.842 291.318 183.842 290.172C183.842 290.119 183.842 290.067 183.842 290.013C183.842 287.427 183.842 284.842 183.842 282.257C183.843 281.347 183.843 280.437 183.843 279.527C183.843 279.471 183.843 279.414 183.843 279.356C183.843 276.733 183.843 274.109 183.843 271.486C183.843 271.314 183.843 271.143 183.843 270.971C183.843 269.935 183.843 268.9 183.843 267.864C183.843 265.29 183.843 262.715 183.843 260.141C183.843 260.082 183.843 260.024 183.843 259.963C183.843 256.169 183.844 252.374 183.844 248.58C183.844 248.489 183.844 248.489 183.844 248.396C183.844 246.43 183.845 244.463 183.845 242.496C183.845 240.58 183.845 238.663 183.845 236.747C183.845 236.686 183.845 236.624 183.845 236.561C183.846 230.74 183.846 224.919 183.846 219.098C183.846 218.79 183.846 218.482 183.846 218.174C183.846 217.804 183.846 217.435 183.846 217.066C183.846 215.777 183.846 214.489 183.846 213.201C183.846 213.018 183.846 212.835 183.846 212.651C183.846 208.921 183.846 205.19 183.846 201.46C183.846 201.401 183.846 201.342 183.846 201.282C183.846 198.593 183.846 195.904 183.847 193.215C183.847 193.042 183.847 192.869 183.847 192.696C183.847 192.351 183.847 192.005 183.847 191.66C183.847 191.603 183.847 191.546 183.847 191.488C183.847 190.915 183.847 190.341 183.847 189.768C183.847 187.203 183.847 184.637 183.847 182.071C183.847 181.957 183.847 181.842 183.847 181.728C183.847 181.273 183.847 180.818 183.847 180.363C183.847 177.385 183.847 174.407 183.848 171.429C183.848 171.377 183.848 171.324 183.848 171.27C183.848 170.125 183.848 168.98 183.848 167.834C183.848 167.428 183.848 167.021 183.848 166.615C183.848 166.514 183.848 166.413 183.848 166.312C183.849 164.737 183.849 163.161 183.848 161.586C183.848 159.989 183.849 158.391 183.849 156.794C183.849 155.888 183.849 154.981 183.849 154.074C183.849 153.47 183.849 152.866 183.849 152.261C183.85 151.92 183.85 151.579 183.849 151.238C183.848 148.856 183.871 146.472 183.975 144.092C183.979 144 183.979 144 183.983 143.906C184.254 137.601 185.017 131.282 192.568 115.69C192.617 115.622 192.667 115.554 192.718 115.484C193.038 115.044 193.373 114.619 193.718 114.201C193.871 114.015 194.019 113.825 194.166 113.635C194.42 113.31 194.689 113.003 194.963 112.697C195.091 112.553 195.215 112.407 195.338 112.26C195.568 111.986 195.805 111.72 196.045 111.456C196.088 111.408 196.132 111.36 196.177 111.311C196.622 110.822 197.077 110.345 197.536 109.87C197.628 109.774 197.72 109.678 197.812 109.582C198.064 109.321 198.315 109.06 198.567 108.799C198.841 108.514 199.115 108.229 199.389 107.944C199.869 107.445 200.349 106.947 200.829 106.448C201.344 105.914 201.858 105.38 202.373 104.845C202.405 104.811 202.438 104.777 202.472 104.743C202.638 104.57 202.804 104.397 202.97 104.224C204.171 102.977 205.371 101.73 206.572 100.483C207.761 99.2482 208.949 98.0137 210.138 96.7791C210.175 96.7407 210.212 96.7023 210.25 96.6627C210.587 96.3121 210.925 95.9614 211.262 95.6108C212.101 94.7392 212.94 93.8676 213.779 92.9961C213.817 92.9564 213.856 92.9167 213.895 92.8758C215.752 90.9471 217.608 89.0186 219.465 87.09C220.109 86.421 220.753 85.7521 221.397 85.0831C221.437 85.0416 221.477 85.0001 221.518 84.9574C223.376 83.0273 225.234 81.0971 227.092 79.167C227.213 79.0416 227.334 78.9162 227.454 78.7909C228.254 77.9601 229.054 77.1293 229.854 76.2985C231.445 74.6455 233.036 72.9925 234.627 71.3395C234.703 71.2608 234.779 71.1821 234.855 71.1034C238.264 67.5615 241.674 64.0196 245.084 60.4779C245.115 60.4447 245.147 60.4116 245.18 60.3774C246.776 58.7194 248.373 57.0615 249.969 55.4036Z" fill="#7700FE"/>
<path d="M241.258 259.896C241.447 259.984 241.578 260.081 241.724 260.233C241.786 260.297 241.786 260.297 241.85 260.363C241.895 260.41 241.941 260.458 241.987 260.507C242.036 260.557 242.085 260.608 242.135 260.66C242.3 260.83 242.465 261.002 242.629 261.173C242.748 261.297 242.867 261.421 242.987 261.544C243.248 261.815 243.508 262.086 243.769 262.357C244.159 262.763 244.549 263.168 244.94 263.573C245.605 264.264 246.27 264.955 246.935 265.646C247.61 266.347 248.284 267.048 248.958 267.748C249.001 267.792 249.043 267.837 249.087 267.882C249.261 268.062 249.434 268.242 249.607 268.422C251.222 270.099 252.837 271.777 254.452 273.455C254.5 273.505 254.548 273.555 254.597 273.606C254.645 273.656 254.693 273.706 254.742 273.757C256.202 275.274 257.662 276.79 259.121 278.307C259.219 278.408 259.317 278.509 259.414 278.611C259.807 279.019 260.199 279.426 260.591 279.834C261.688 280.973 262.785 282.113 263.882 283.253C263.932 283.304 263.982 283.356 264.034 283.41C265.626 285.064 267.218 286.719 268.811 288.373C268.888 288.454 268.888 288.454 268.967 288.536C269.806 289.408 270.645 290.279 271.484 291.151C274.812 294.61 278.141 298.068 281.47 301.526C282.309 302.397 283.148 303.268 283.986 304.14C284.038 304.193 284.09 304.247 284.143 304.302C285.734 305.955 287.325 307.608 288.915 309.26C288.965 309.312 289.015 309.364 289.067 309.417C290.162 310.556 291.258 311.694 292.353 312.832C292.745 313.24 293.137 313.647 293.529 314.054C293.627 314.156 293.724 314.257 293.822 314.358C295.281 315.875 296.741 317.391 298.2 318.907C298.248 318.957 298.296 319.006 298.346 319.058C298.393 319.107 298.441 319.157 298.49 319.208C300.101 320.881 301.711 322.553 303.32 324.226C303.493 324.406 303.665 324.585 303.838 324.765C303.88 324.809 303.923 324.853 303.966 324.898C304.639 325.597 305.312 326.296 305.985 326.995C306.646 327.681 307.306 328.367 307.966 329.053C308.354 329.457 308.742 329.86 309.13 330.262C309.387 330.529 309.644 330.796 309.9 331.063C310.046 331.215 310.193 331.367 310.339 331.519C310.495 331.681 310.652 331.844 310.808 332.006C310.854 332.054 310.9 332.101 310.947 332.15C310.988 332.193 311.029 332.236 311.071 332.28C311.107 332.317 311.143 332.354 311.179 332.392C311.255 332.487 311.255 332.487 311.255 332.617C307.898 332.618 304.542 332.619 301.185 332.619C301.087 332.619 301.087 332.619 300.986 332.619C293.95 332.621 286.914 332.622 279.878 332.623C279.722 332.623 279.565 332.623 279.409 332.623C276.129 332.623 272.85 332.623 269.57 332.624C267.922 332.624 266.275 332.624 264.627 332.624C264.379 332.624 264.13 332.624 263.882 332.624C260.054 332.625 256.226 332.625 252.399 332.626C252.316 332.626 252.234 332.626 252.149 332.626C250.822 332.626 249.495 332.627 248.167 332.627C244.345 332.628 240.523 332.629 236.7 332.629C236.582 332.629 236.582 332.629 236.462 332.629C234.737 332.629 233.013 332.629 231.288 332.629C230.594 332.629 229.9 332.629 229.206 332.629C229.131 332.629 229.055 332.629 228.976 332.629C226.528 332.63 224.079 332.63 221.63 332.631C219.165 332.632 216.699 332.632 214.233 332.632C213.893 332.632 213.552 332.632 213.212 332.632C213.145 332.632 213.078 332.632 213.01 332.632C211.951 332.632 210.893 332.632 209.834 332.633C208.794 332.633 207.755 332.633 206.715 332.633C206.105 332.633 205.494 332.633 204.884 332.634C204.479 332.634 204.075 332.634 203.67 332.633C203.44 332.633 203.21 332.633 202.981 332.634C202.734 332.634 202.487 332.634 202.24 332.633C202.169 332.634 202.098 332.634 202.025 332.634C201.677 332.633 201.358 332.609 201.02 332.518C200.84 332.471 200.659 332.454 200.475 332.434C199.416 332.29 198.43 331.96 197.456 331.51C197.412 331.49 197.367 331.47 197.322 331.449C196.343 330.989 195.443 330.357 194.636 329.622C194.557 329.551 194.557 329.551 194.477 329.479C192.151 327.342 190.752 324.486 190.124 321.354C190.113 321.301 190.102 321.248 190.09 321.193C189.776 319.672 189.815 317.923 190.124 316.406C190.142 316.309 190.159 316.213 190.177 316.116C190.756 313.055 192.38 310.664 194.462 308.506C194.544 308.421 194.626 308.335 194.708 308.25C194.932 308.017 195.157 307.784 195.382 307.551C195.626 307.297 195.871 307.042 196.115 306.788C196.544 306.343 196.972 305.898 197.4 305.453C198.038 304.792 198.675 304.13 199.311 303.468C200.383 302.355 201.454 301.242 202.526 300.129C203.587 299.027 204.648 297.925 205.709 296.823C205.742 296.789 205.775 296.755 205.809 296.719C206.11 296.406 206.411 296.094 206.712 295.781C207.461 295.003 208.209 294.225 208.958 293.448C208.992 293.412 209.026 293.377 209.061 293.34C210.718 291.619 212.376 289.898 214.033 288.176C214.608 287.579 215.183 286.982 215.758 286.385C215.793 286.348 215.829 286.311 215.866 286.272C217.524 284.55 219.183 282.827 220.841 281.105C220.949 280.993 221.056 280.881 221.164 280.769C221.878 280.028 222.591 279.286 223.305 278.545C224.725 277.07 226.145 275.595 227.565 274.12C227.632 274.049 227.7 273.979 227.768 273.909C231.365 270.172 234.962 266.435 241.258 259.896Z" fill="#FE4E12"/>
</svg>
